<svg xmlns="http://www.w3.org/2000/svg" width="600" height="400">
  <rect width="600" height="400" fill="white"/>
  <text x="300" y="20" text-anchor="middle" font-size="14" font-weight="bold">Inverse Collatz Tree: Nodes at Each Depth</text>
  <text x="300" y="395" text-anchor="middle" font-size="11">Depth</text>
  <line x1="60" y1="340" x2="540" y2="340" stroke="black"/>
  <line x1="60" y1="60" x2="60" y2="340" stroke="black"/>
  <rect x="60.0" y="321.3" width="34.9" height="18.7" fill="royalblue" stroke="black" stroke-width="0.5"/><text x="77.5" y="355" text-anchor="middle" font-size="9">0</text><rect x="103.6" y="267.0" width="34.9" height="73.0" fill="royalblue" stroke="black" stroke-width="0.5"/><text x="121.1" y="355" text-anchor="middle" font-size="9">1</text><rect x="147.3" y="225.1" width="34.9" height="114.9" fill="royalblue" stroke="black" stroke-width="0.5"/><text x="164.7" y="355" text-anchor="middle" font-size="9">2</text><rect x="190.9" y="190.5" width="34.9" height="149.5" fill="royalblue" stroke="black" stroke-width="0.5"/><text x="208.4" y="355" text-anchor="middle" font-size="9">3</text><rect x="234.5" y="162.8" width="34.9" height="177.2" fill="royalblue" stroke="black" stroke-width="0.5"/><text x="252.0" y="355" text-anchor="middle" font-size="9">4</text><rect x="278.2" y="139.1" width="34.9" height="200.9" fill="royalblue" stroke="black" stroke-width="0.5"/><text x="295.6" y="355" text-anchor="middle" font-size="9">5</text><rect x="321.8" y="117.5" width="34.9" height="222.5" fill="royalblue" stroke="black" stroke-width="0.5"/><text x="339.3" y="355" text-anchor="middle" font-size="9">6</text><rect x="365.5" y="100.7" width="34.9" height="239.3" fill="royalblue" stroke="black" stroke-width="0.5"/><text x="382.9" y="355" text-anchor="middle" font-size="9">7</text><rect x="409.1" y="84.9" width="34.9" height="255.1" fill="royalblue" stroke="black" stroke-width="0.5"/><text x="426.5" y="355" text-anchor="middle" font-size="9">8</text><rect x="452.7" y="72.1" width="34.9" height="267.9" fill="royalblue" stroke="black" stroke-width="0.5"/><text x="470.2" y="355" text-anchor="middle" font-size="9">9</text><rect x="496.4" y="60.0" width="34.9" height="280.0" fill="royalblue" stroke="black" stroke-width="0.5"/><text x="513.8" y="355" text-anchor="middle" font-size="9">10</text>
</svg>