<svg xmlns="http://www.w3.org/2000/svg" width="600" height="400">
  <rect width="600" height="400" fill="white"/>
  <text x="300" y="20" text-anchor="middle" font-size="14" font-weight="bold">Avg Syracuse Stopping Time by Trailing 1-bits</text>
  <text x="300" y="395" text-anchor="middle" font-size="11">Trailing 1-bits</text>
  <line x1="60" y1="340" x2="540" y2="340" stroke="black"/>
  <line x1="60" y1="60" x2="60" y2="340" stroke="black"/>
  <rect x="60.0" y="173.9" width="38.4" height="166.1" fill="mediumpurple" stroke="black" stroke-width="0.5"/><text x="79.2" y="355" text-anchor="middle" font-size="9">1</text><rect x="108.0" y="161.0" width="38.4" height="179.0" fill="mediumpurple" stroke="black" stroke-width="0.5"/><text x="127.2" y="355" text-anchor="middle" font-size="9">2</text><rect x="156.0" y="144.2" width="38.4" height="195.8" fill="mediumpurple" stroke="black" stroke-width="0.5"/><text x="175.2" y="355" text-anchor="middle" font-size="9">3</text><rect x="204.0" y="137.1" width="38.4" height="202.9" fill="mediumpurple" stroke="black" stroke-width="0.5"/><text x="223.2" y="355" text-anchor="middle" font-size="9">4</text><rect x="252.0" y="114.7" width="38.4" height="225.3" fill="mediumpurple" stroke="black" stroke-width="0.5"/><text x="271.2" y="355" text-anchor="middle" font-size="9">5</text><rect x="300.0" y="96.1" width="38.4" height="243.9" fill="mediumpurple" stroke="black" stroke-width="0.5"/><text x="319.2" y="355" text-anchor="middle" font-size="9">6</text><rect x="348.0" y="108.2" width="38.4" height="231.8" fill="mediumpurple" stroke="black" stroke-width="0.5"/><text x="367.2" y="355" text-anchor="middle" font-size="9">7</text><rect x="396.0" y="80.2" width="38.4" height="259.8" fill="mediumpurple" stroke="black" stroke-width="0.5"/><text x="415.2" y="355" text-anchor="middle" font-size="9">8</text><rect x="444.0" y="111.5" width="38.4" height="228.5" fill="mediumpurple" stroke="black" stroke-width="0.5"/><text x="463.2" y="355" text-anchor="middle" font-size="9">9</text><rect x="492.0" y="60.0" width="38.4" height="280.0" fill="mediumpurple" stroke="black" stroke-width="0.5"/><text x="511.2" y="355" text-anchor="middle" font-size="9">10</text>
</svg>